<?xml version="1.0" encoding="utf-8"?>
<!-- Generator: Adobe Illustrator 25.0.1, SVG Export Plug-In . SVG Version: 6.00 Build 0)  -->
<svg version="1.1" id="ic_x5F_device_x5F_list_x5F_ceilingfan"
	 xmlns="http://www.w3.org/2000/svg" xmlns:xlink="http://www.w3.org/1999/xlink" x="0px" y="0px" viewBox="0 0 240 240"
	 style="enable-background:new 0 0 240 240;" xml:space="preserve">
<style type="text/css">
	.st0{fill:url(#SVGID_1_);}
	.st1{fill:url(#SVGID_2_);}
	.st2{fill:url(#SVGID_3_);}
	.st3{fill:url(#SVGID_4_);}
	.st4{fill:url(#SVGID_5_);}
	.st5{fill:url(#SVGID_6_);}
	.st6{fill:url(#SVGID_7_);}
	.st7{opacity:0.2;}
	.st8{fill:#AFAFAF;}
	.st9{fill:url(#SVGID_8_);}
	.st10{fill:url(#SVGID_9_);}
</style>
<g id="_x5F_default_35_">
	<g>
		
			<linearGradient id="SVGID_1_" gradientUnits="userSpaceOnUse" x1="-242.8108" y1="149.437" x2="-163.9724" y2="57.7446" gradientTransform="matrix(-1 0 0 1 -38.1971 0)">
			<stop  offset="1.465798e-02" style="stop-color:#5FCBF7;stop-opacity:0"/>
			<stop  offset="0.5315" style="stop-color:#52ACF7;stop-opacity:0.5245"/>
			<stop  offset="1" style="stop-color:#448CF6"/>
		</linearGradient>
		<path class="st0" d="M178.7,130.5c0-32.3-26.3-58.6-58.6-58.7V45.9c46.6,0.1,84.4,37.9,84.4,84.5c0,15.6-4.2,30.2-11.6,42.7
			l-22.3-13.1C175.7,151.4,178.7,141.3,178.7,130.5z"/>
		
			<linearGradient id="SVGID_2_" gradientUnits="userSpaceOnUse" x1="-143.8614" y1="43.3681" x2="-77.0968" y2="157.7075" gradientTransform="matrix(-1 0 0 1 -38.1971 0)">
			<stop  offset="1.465798e-02" style="stop-color:#5FCBF7;stop-opacity:0"/>
			<stop  offset="0.5315" style="stop-color:#52ACF7;stop-opacity:0.5245"/>
			<stop  offset="1" style="stop-color:#448CF6"/>
		</linearGradient>
		<path class="st1" d="M61.3,130.5c0,11.1,3.1,21.5,8.5,30.3l-22.9,12.1c-7.2-12.5-11.4-27-11.4-42.4c0-46.7,37.8-84.5,84.5-84.5
			v25.8C87.6,71.8,61.3,98.1,61.3,130.5z"/>
		
			<linearGradient id="SVGID_3_" gradientUnits="userSpaceOnUse" x1="-85.9963" y1="187.5974" x2="-230.9848" y2="187.5974" gradientTransform="matrix(-1 0 0 1 -38.1971 0)">
			<stop  offset="8.100983e-02" style="stop-color:#5FCBF7;stop-opacity:0"/>
			<stop  offset="0.5631" style="stop-color:#52ACF7;stop-opacity:0.5245"/>
			<stop  offset="1" style="stop-color:#448CF6"/>
		</linearGradient>
		<path class="st2" d="M47.8,174.4l22-13.5c10.3,17,28.9,28.3,50.2,28.3c21.5,0,40.4-11.7,50.6-29l22.2,13.2
			C178.1,198.3,151,215,120,215C89.4,215,62.6,198.7,47.8,174.4z"/>
	</g>
	<g>
		<linearGradient id="SVGID_4_" gradientUnits="userSpaceOnUse" x1="31.4978" y1="111.9756" x2="203.4978" y2="111.9756">
			<stop  offset="0" style="stop-color:#CCCCCC"/>
			<stop  offset="0.6" style="stop-color:#EEEEEE"/>
			<stop  offset="1" style="stop-color:#CACACA"/>
		</linearGradient>
		<path class="st3" d="M203.4,170.2C203.4,170.2,203.4,170.2,203.4,170.2c-0.1-1.7-1.1-3.3-2.5-4.2l-0.2-0.1l-51.6-33.1
			c-7.3-5.2-13.9-11.1-15.1-25.2c-1.3-15.2-3.9-68.8-4-70.1c0,0,0-0.4,0-1c0-1-1.1-1.7-2.1-1.4c-0.5,0.2-0.9,0.3-0.9,0.3
			c-0.8,0.3-9.1,3.1-15.4,7.7c-0.1,0-0.2,0.1-0.3,0.2c-1.3,1-2,2.5-2.1,4.1l-1.9,50.8c-0.1,1.3-0.1,2.7-0.2,4.1
			c-0.3,9.3-0.5,19.9-13,28.8C79.1,142,33.4,171.6,33,171.9l-0.8,0.5c-0.9,0.6-1,1.8-0.2,2.5l0.7,0.6c0.3,0.3,7.9,7.1,14.1,9.9
			c1.5,0.6,3.1,0.6,4.5-0.2l0.6-0.3l52.4-27.5c4.5-2.3,10.1-4.6,16.8-4.6c4.8,0,9.7,1.2,14.8,3.6c15,7,62.3,31.7,62.8,31.9l0.8,0.4
			c0.9,0.5,2,0,2.3-1.1l0.2-0.9C202.1,186.5,203.9,178,203.4,170.2z M144.4,145.7l-0.3,0.5c-0.8,1.4-2.3,2.3-4,2.3c0,0,0,0,0,0
			c-0.6,0-1.3-0.1-1.9-0.4c-5.8-2.4-11.8-3.7-17.8-3.7c-0.1,0-0.1,0-0.2,0c-6,0-12,1.3-17.9,3.8c-0.6,0.3-1.2,0.4-1.8,0.4
			c0,0,0,0,0,0c-1.7,0-3.1-0.8-3.9-2.3l-0.3-0.6c-1.2-2-0.6-4.6,1.4-6c6.9-5,16.2-13.7,18.2-31.3c0.3-2.3,2.2-4.1,4.5-4.1l0,0
			c0,0,0,0,0,0c2.3,0,4.3,1.8,4.6,4.1c2,17.6,11.3,26.2,18.1,31.2C145,141,145.6,143.6,144.4,145.7z"/>
		<linearGradient id="SVGID_5_" gradientUnits="userSpaceOnUse" x1="31.5049" y1="104.7309" x2="129.0747" y2="104.7309">
			<stop  offset="0" style="stop-color:#CCCCCC"/>
			<stop  offset="0.5891" style="stop-color:#EEEEEE"/>
			<stop  offset="1" style="stop-color:#DDDDDD"/>
		</linearGradient>
		<path class="st4" d="M115.8,108.4c0.3-2.3,2.2-4.1,4.5-4.1l0,0c0,0,0,0,0,0c0.6,0,1.2,0.1,1.8,0.4c0.2-0.6,0.4-1,0.4-1l6.5-68.6
			c-0.3-0.2-0.8-0.2-1.2-0.1c-0.5,0.2-0.9,0.3-0.9,0.3c-0.8,0.3-9.1,3.1-15.4,7.7c-0.1,0-0.2,0.1-0.3,0.2c-1.3,1-2,2.5-2.1,4.1
			l-1.9,50.8c-0.1,1.3-0.1,2.7-0.2,4.1c-0.3,9.3-0.5,19.9-13,28.8C79.1,142,33.4,171.6,33,171.9l-0.8,0.5c-0.7,0.5-0.9,1.4-0.5,2.1
			l66.3-35C104.8,134.4,113.9,125.8,115.8,108.4z"/>
		<linearGradient id="SVGID_6_" gradientUnits="userSpaceOnUse" x1="40.1567" y1="159.132" x2="169.9993" y2="172.9076">
			<stop  offset="0" style="stop-color:#CCCCCC"/>
			<stop  offset="0.8408" style="stop-color:#EEEEEE"/>
		</linearGradient>
		<path class="st5" d="M133.8,146.5c-4.4-1.4-8.8-2.1-13.3-2.1c-0.1,0-0.1,0-0.2,0c-6,0-12,1.3-17.9,3.8c-0.6,0.3-1.2,0.4-1.8,0.4
			c0,0,0,0,0,0c-1.7,0-3.1-0.8-3.9-2.3l-0.3-0.6c-1.2-2-0.6-4.6,1.4-6c0.1-0.1,0.2-0.2,0.4-0.3l-66.3,35l0,0
			c0.1,0.2,0.2,0.3,0.3,0.4l0.7,0.6c0.3,0.3,7.9,7.1,14.1,9.9c1.5,0.6,3.1,0.6,4.5-0.2l0.6-0.3l52.4-27.5c4.5-2.3,10.1-4.6,16.8-4.6
			c4.8,0,9.7,1.2,14.8,3.6c15,7,62.3,31.7,62.8,31.9l0.8,0.4c0.7,0.3,1.4,0.2,1.9-0.3L133.8,146.5z"/>
	</g>
	
		<radialGradient id="SVGID_7_" cx="123.5227" cy="129.1173" r="119.6443" gradientTransform="matrix(0.9765 0 0 0.9764 -0.5053 5.9609)" gradientUnits="userSpaceOnUse">
		<stop  offset="0.6292" style="stop-color:#9C9C9C;stop-opacity:0"/>
		<stop  offset="1" style="stop-color:#5B5B5B;stop-opacity:0.3"/>
	</radialGradient>
	<path class="st6" d="M203.4,170.2C203.4,170.2,203.4,170.2,203.4,170.2c-0.1-1.7-1.1-3.3-2.5-4.2l-0.2-0.1l-51.6-33.1
		c-7.3-5.2-13.9-11.1-15.1-25.2c-1.3-15.2-3.9-68.8-4-70.1c0,0,0-0.4,0-1c0-1-1.1-1.7-2.1-1.4c-0.5,0.2-0.9,0.3-0.9,0.3
		c-0.8,0.3-9.1,3.1-15.4,7.7c-0.1,0-0.2,0.1-0.3,0.2c-1.3,1-2,2.5-2.1,4.1l-1.9,50.8c-0.1,1.3-0.1,2.7-0.2,4.1
		c-0.3,9.3-0.5,19.9-13,28.8C79.1,142,33.4,171.6,33,171.9l-0.8,0.5c-0.9,0.6-1,1.8-0.2,2.5l0.7,0.6c0.3,0.3,7.9,7.1,14.1,9.9
		c1.5,0.6,3.1,0.6,4.5-0.2l0.6-0.3l52.4-27.5c4.5-2.3,10.1-4.6,16.8-4.6c4.8,0,9.7,1.2,14.8,3.6c15,7,62.3,31.7,62.8,31.9l0.8,0.4
		c0.9,0.5,2,0,2.3-1.1l0.2-0.9C202.1,186.5,203.9,178,203.4,170.2z M144.4,145.7l-0.3,0.5c-0.8,1.4-2.3,2.3-4,2.3c0,0,0,0,0,0
		c-0.6,0-1.3-0.1-1.9-0.4c-5.8-2.4-11.8-3.7-17.8-3.7c-0.1,0-0.1,0-0.2,0c-6,0-12,1.3-17.9,3.8c-0.6,0.3-1.2,0.4-1.8,0.4
		c0,0,0,0,0,0c-1.7,0-3.1-0.8-3.9-2.3l-0.3-0.6c-1.2-2-0.6-4.6,1.4-6c6.9-5,16.2-13.7,18.2-31.3c0.3-2.3,2.2-4.1,4.5-4.1l0,0
		c0,0,0,0,0,0c2.3,0,4.3,1.8,4.6,4.1c2,17.6,11.3,26.2,18.1,31.2C145,141,145.6,143.6,144.4,145.7z"/>
	<g class="st7">
		<path class="st8" d="M128,37.1l0,0.4c0,0.5,2.6,54.7,4,70.1c1.3,15,8.6,21.4,16,26.7l0,0l0,0l51.6,33.1l0.2,0.1
			c0.9,0.6,1.5,1.6,1.6,2.7c0.5,7.6-1.3,15.8-1.3,16.1l-0.1,0.4l-0.3-0.2c-0.5-0.2-47.8-25-62.9-32c-5.4-2.5-10.5-3.7-15.7-3.7
			c-7.1,0-12.9,2.4-17.7,4.8L51,183.1l-0.6,0.3c-0.5,0.2-1,0.4-1.5,0.4c-0.4,0-0.9-0.1-1.3-0.3c-6-2.6-13.3-9.2-13.6-9.5l-0.3-0.2
			l0.3-0.2c0.5-0.3,46-29.9,61.3-40.9c13.2-9.5,13.5-21.1,13.8-30.4c0-1.4,0.1-2.8,0.2-4.1l0,0l0,0l1.9-50.8c0-1,0.5-1.9,1.3-2.6
			c0.1-0.1,0.2-0.1,0.2-0.2c6-4.4,14-7.1,14.9-7.4C127.6,37.2,127.8,37.2,128,37.1 M128.4,35c-0.2,0-0.3,0-0.5,0.1
			c-0.5,0.2-0.9,0.3-0.9,0.3c-0.8,0.3-9.1,3.1-15.4,7.7c-0.1,0-0.2,0.1-0.3,0.2c-1.3,1-2,2.5-2.1,4.1l-1.9,50.8
			c-0.1,1.3-0.1,2.7-0.2,4.1c-0.3,9.3-0.5,19.9-13,28.8C79.1,142,33.4,171.6,33,171.9l-0.8,0.5c-0.9,0.6-1,1.8-0.2,2.5l0.7,0.6
			c0.3,0.3,7.9,7.1,14.1,9.9c0.7,0.3,1.4,0.4,2.1,0.4c0.8,0,1.7-0.2,2.4-0.6l0.6-0.3l52.4-27.5c4.5-2.3,10.1-4.6,16.8-4.6
			c4.8,0,9.7,1.2,14.8,3.6c15,7,62.3,31.7,62.8,31.9l0.8,0.4c0.2,0.1,0.5,0.2,0.7,0.2c0.7,0,1.4-0.5,1.5-1.2l0.2-0.9
			c0.1-0.4,1.9-8.8,1.4-16.7c0,0,0,0,0,0c-0.1-1.7-1.1-3.3-2.5-4.2l-0.2-0.1l-51.6-33.1c-7.3-5.2-13.9-11.1-15.1-25.2
			c-1.3-15.2-3.9-68.8-4-70.1c0,0,0-0.4,0-1C129.9,35.6,129.2,35,128.4,35L128.4,35z"/>
	</g>
	<linearGradient id="SVGID_8_" gradientUnits="userSpaceOnUse" x1="95.3691" y1="120.2388" x2="149.09" y2="142.379">
		<stop  offset="0" style="stop-color:#4D4D4D"/>
		<stop  offset="0.505" style="stop-color:#AFAFAF"/>
		<stop  offset="1" style="stop-color:#4D4D4D"/>
	</linearGradient>
	<path class="st9" d="M120.4,104.3c2.3,0,4.3,1.8,4.6,4.1c2,17.6,11.3,26.2,18.1,31.2c1.9,1.4,2.5,4,1.4,6l-0.3,0.5
		c-0.8,1.4-2.3,2.3-4,2.3c0,0,0,0,0,0c-0.6,0-1.3-0.1-1.9-0.4c-5.8-2.4-11.8-3.7-17.8-3.7c-0.1,0-0.1,0-0.2,0c-6,0-12,1.3-17.9,3.8
		c-0.6,0.3-1.2,0.4-1.8,0.4c0,0,0,0,0,0c-1.7,0-3.1-0.8-3.9-2.3l-0.3-0.6c-1.2-2-0.6-4.6,1.4-6c6.9-5,16.2-13.7,18.2-31.3
		C116.1,106.1,118,104.3,120.4,104.3L120.4,104.3C120.4,104.3,120.4,104.3,120.4,104.3 M120.4,101.5L120.4,101.5L120.4,101.5
		L120.4,101.5L120.4,101.5c-3.8,0-7,2.9-7.4,6.6c-1.9,16.6-10.6,24.7-17.1,29.4c-3.1,2.3-4,6.5-2.1,9.7l0.3,0.6
		c1.3,2.3,3.7,3.7,6.4,3.7h0l0,0c1,0,2-0.2,2.9-0.6c5.5-2.3,11.2-3.5,16.8-3.6l0.2,0c5.6,0,11.2,1.2,16.7,3.5c0.9,0.4,1.9,0.6,3,0.6
		h0l0,0c2.7,0,5.1-1.4,6.4-3.7l0.3-0.5c1.9-3.3,1-7.5-2.1-9.8c-6.4-4.7-15.1-12.8-17-29.2C127.4,104.3,124.2,101.5,120.4,101.5
		L120.4,101.5z"/>
	<g>
		<g>
			
				<radialGradient id="SVGID_9_" cx="128.0863" cy="125.2321" r="14.5321" gradientTransform="matrix(0.9478 0 0 0.9481 -1.0406 13.7124)" gradientUnits="userSpaceOnUse">
				<stop  offset="3.767450e-04" style="stop-color:#EDEDED"/>
				<stop  offset="0.5" style="stop-color:#E2E2E2"/>
				<stop  offset="1" style="stop-color:#F6F6F6"/>
			</radialGradient>
			<path class="st10" d="M120.4,146.2c-7.6,0-13.8-6.2-13.8-13.8c0-7.6,6.2-13.8,13.8-13.8c7.6,0,13.8,6.2,13.8,13.8
				C134.1,140,128,146.2,120.4,146.2z"/>
			<path class="st8" d="M120.4,119.7c7,0,12.8,5.7,12.8,12.8c0,7-5.7,12.8-12.8,12.8s-12.8-5.7-12.8-12.8
				C107.6,125.4,113.3,119.7,120.4,119.7 M120.4,117.7c-8.2,0-14.8,6.6-14.8,14.8c0,8.2,6.6,14.8,14.8,14.8s14.8-6.6,14.8-14.8
				C135.1,124.3,128.5,117.7,120.4,117.7L120.4,117.7z"/>
		</g>
	</g>
</g>
</svg>
