<?xml version="1.0" encoding="utf-8"?>
<!-- Generator: Adobe Illustrator 26.3.1, SVG Export Plug-In . SVG Version: 6.00 Build 0)  -->
<svg version="1.1" xmlns="http://www.w3.org/2000/svg" xmlns:xlink="http://www.w3.org/1999/xlink" x="0px" y="0px"
	 viewBox="0 0 43.8 49.3" style="enable-background:new 0 0 43.8 49.3;" xml:space="preserve">
<style type="text/css">
	.st0{fill:#4E4E4E;}
	.st1{fill:#333333;}
	.st2{fill:#FFFFFF;}
</style>
<g id="Calque_1">
	<g id="Calque_2_1_">
		<g>
			<path class="st0" d="M0.2,35c0,4.7,3.8,8.5,8.5,8.5h26.4c4.7,0,8.5-3.8,8.5-8.5V8.7c0-4.7-3.8-8.5-8.5-8.5H8.7
				C4,0.1,0.2,4,0.2,8.7V35z"/>
		</g>
	</g>
	<g>
		<path class="st1" d="M25,24.4c-1.8,0-3.6,0-5.4,0c0,2.9,0,5.8,0,8.7c4.6,0,9.3,0,13.9,0c0-0.2,0-0.3,0-0.4c0-3.7,0-7.4,0-11.1
			c0-0.3-0.1-0.5-0.4-0.6c-1.6-0.7-2.5-2.3-2.2-4.1c0-0.3,0-0.5-0.3-0.7c-2.8-1.7-5.5-3.5-8.3-5.2c-0.3-0.2-0.4-0.2-0.7,0
			c-3.5,2.3-7,4.5-10.5,6.8c-0.3,0.2-0.4,0.4-0.4,0.7c0,3.3,0,6.6,0,9.9c0,0.3,0.1,0.5,0.4,0.6c1.7,0.9,2.5,2.8,2,4.6
			c-0.6,1.8-2.3,2.9-4.3,2.7c-1.8-0.2-3.2-1.8-3.3-3.7c-0.1-1.5,0.6-2.7,1.9-3.5c0.3-0.2,0.4-0.4,0.4-0.7c0-3.5,0-7,0-10.5
			c0-1.2,0.4-2,1.4-2.6c3.8-2.5,7.7-5,11.5-7.5c0.9-0.6,1.6-0.6,2.5,0c3.1,2,6.2,4,9.3,6c0.2,0.2,0.4,0.2,0.7,0.1
			c2.4-1,5.2,0.5,5.5,3c0.2,1.6-0.4,2.9-1.7,3.8c-0.3,0.2-0.4,0.4-0.4,0.8c0,4.3,0,8.5,0,12.8c0,1.3-0.5,1.9-1.8,1.9
			c-5.6,0-11.2,0-16.8,0c-0.9,0-1.5-0.6-1.5-1.5c0-3.9,0-7.7,0-11.6c0-1.2,0.4-1.6,1.6-1.6c1.5,0,3,0,4.5,0c1.4,0,2.7,0,4.1,0
			c0.9,0,1.3,0.4,1.3,1.3c0,2.6,0,5.3,0,7.9c0,0.6-0.2,0.7-0.8,0.8c-0.5,0-1,0-1.5,0c-0.6,0-0.7-0.2-0.7-0.8c0-1.9,0-3.7,0-5.6
			C25,24.8,25,24.6,25,24.4z M36.2,17.4c0-0.8-0.7-1.5-1.5-1.5c-0.8,0-1.5,0.7-1.5,1.5c0,0.8,0.6,1.5,1.5,1.5
			C35.5,18.9,36.2,18.2,36.2,17.4z M8,32.4c0,0.8,0.7,1.5,1.5,1.5c0.8,0,1.5-0.7,1.5-1.5c0-0.8-0.6-1.5-1.5-1.5
			C8.6,31,8,31.6,8,32.4z"/>
		<path class="st1" d="M8,32.4C8,31.6,8.6,31,9.5,31c0.8,0,1.5,0.7,1.5,1.5c0,0.8-0.7,1.5-1.5,1.5C8.6,33.9,8,33.3,8,32.4z"/>
		<path class="st1" d="M36.2,17.4c0,0.8-0.7,1.5-1.5,1.5c-0.8,0-1.5-0.7-1.5-1.5c0-0.8,0.7-1.5,1.5-1.5C35.5,16,36.2,16.6,36.2,17.4
			z"/>
	</g>
	<g id="Calque_3">
	</g>
	<g>
		<path class="st0" d="M36.1,17.5c0,0.8-0.7,1.5-1.5,1.5c-0.8,0-1.5-0.7-1.5-1.5c0-0.8,0.7-1.5,1.5-1.5C35.4,16,36.1,16.7,36.1,17.5
			z"/>
		<path class="st0" d="M7.8,32.5c0-0.8,0.6-1.5,1.5-1.5c0.8,0,1.5,0.7,1.5,1.5c0,0.8-0.7,1.5-1.5,1.5C8.5,34,7.8,33.3,7.8,32.5z"/>
		<path class="st2" d="M24.7,24c-1.8,0-3.6,0-5.4,0c0,2.9,0,5.8,0,8.7c4.6,0,9.3,0,13.9,0c0-0.2,0-0.3,0-0.4c0-3.7,0-7.4,0-11.1
			c0-0.3-0.1-0.5-0.4-0.6c-1.6-0.7-2.5-2.3-2.2-4.1c0-0.3,0-0.5-0.3-0.7c-2.8-1.7-5.5-3.5-8.3-5.2c-0.3-0.2-0.4-0.2-0.7,0
			c-3.5,2.3-7,4.5-10.5,6.8c-0.3,0.2-0.4,0.4-0.4,0.7c0,3.3,0,6.6,0,9.9c0,0.3,0.1,0.5,0.4,0.6c1.7,0.9,2.5,2.8,2,4.6
			c-0.6,1.8-2.3,2.9-4.3,2.7c-1.8-0.2-3.2-1.8-3.3-3.7c-0.1-1.5,0.6-2.7,1.9-3.5c0.3-0.2,0.4-0.4,0.4-0.7c0-3.5,0-7,0-10.5
			c0-1.2,0.4-2,1.4-2.6c3.8-2.5,7.7-5,11.5-7.5c0.9-0.6,1.6-0.6,2.5,0c3.1,2,6.2,4,9.3,6c0.2,0.2,0.4,0.2,0.7,0.1
			c2.4-1,5.2,0.5,5.5,3c0.2,1.6-0.4,2.9-1.7,3.8c-0.3,0.2-0.4,0.4-0.4,0.8c0,4.3,0,8.5,0,12.8c0,1.3-0.5,1.9-1.8,1.9
			c-5.6,0-11.2,0-16.8,0c-0.9,0-1.5-0.6-1.5-1.5c0-3.9,0-7.7,0-11.6c0-1.2,0.4-1.6,1.6-1.6c1.5,0,3,0,4.5,0c1.4,0,2.7,0,4.1,0
			c0.9,0,1.3,0.4,1.3,1.3c0,2.6,0,5.3,0,7.9c0,0.6-0.2,0.7-0.8,0.8c-0.5,0-1,0-1.5,0c-0.6,0-0.7-0.2-0.7-0.8c0-1.9,0-3.7,0-5.6
			C24.7,24.4,24.7,24.2,24.7,24z M36,17.1c0-0.8-0.7-1.5-1.5-1.5c-0.8,0-1.5,0.7-1.5,1.5c0,0.8,0.6,1.5,1.5,1.5
			C35.3,18.6,36,17.9,36,17.1z M7.7,32.1c0,0.8,0.7,1.5,1.5,1.5c0.8,0,1.5-0.7,1.5-1.5c0-0.8-0.6-1.5-1.5-1.5
			C8.4,30.6,7.7,31.2,7.7,32.1z"/>
	</g>
</g>
<g id="Calque_2">
</g>
</svg>
